<svg xmlns="http://www.w3.org/2000/svg" version="1.1" xmlns:xlink="http://www.w3.org/1999/xlink" xmlns:svgjs="http://svgjs.com/svgjs" width="1000" height="1000"><rect width="1000" height="1000" rx="500" ry="500" fill="#ffffff"></rect><g transform="matrix(1,0,0,1,0,252)"><svg xmlns="http://www.w3.org/2000/svg" version="1.1" xmlns:xlink="http://www.w3.org/1999/xlink" xmlns:svgjs="http://svgjs.com/svgjs" width="100%" height="496"><svg version="1.1" id="Layer_1" xmlns="http://www.w3.org/2000/svg" xmlns:xlink="http://www.w3.org/1999/xlink" x="0px" y="0px" width="100%" viewBox="0 0 528 496" enable-background="new 0 0 528 496" xml:space="preserve">
<path fill="#000000" opacity="1.000000" stroke="none" d="
M258.196533,427.672424 
	C274.337128,427.575134 289.957825,428.913147 305.634735,428.735229 
	C331.947357,428.436615 358.248230,427.976776 384.460144,425.556580 
	C392.047882,424.855988 399.559906,423.229462 407.070465,421.832886 
	C413.159912,420.700562 417.518738,417.163513 420.672546,411.797302 
	C429.321533,397.081085 433.347595,380.744446 437.608643,364.477661 
	C438.366699,361.583801 438.995636,358.652954 439.846893,355.787537 
	C440.683777,352.970490 442.008331,349.994354 445.472656,350.520874 
	C448.698242,351.011139 448.154236,354.202850 448.336761,356.655731 
	C449.595123,373.566498 450.900940,390.473816 452.118286,407.387482 
	C452.337585,410.434723 453.543304,412.770691 455.960602,414.607239 
	C457.147827,415.509247 458.213654,416.590424 459.243591,417.676666 
	C465.189911,423.948242 464.693787,427.778992 457.952850,433.362823 
	C446.827362,442.578522 433.386292,444.761902 419.763855,446.284149 
	C376.351624,451.135376 332.805420,453.405823 289.128998,451.885406 
	C262.822968,450.969666 236.581696,449.188293 211.605606,439.649017 
	C194.906570,433.271027 186.948959,421.707123 186.741501,403.724518 
	C186.280136,363.729980 189.050842,323.788177 188.665955,283.794922 
	C188.599808,276.921173 187.843063,270.166840 185.442413,263.690399 
	C183.068268,257.285492 182.139206,256.876556 175.498611,258.101990 
	C165.348907,259.974945 155.304672,262.295166 145.358948,265.037659 
	C143.545273,265.537781 140.865860,265.332550 140.657639,267.890198 
	C140.459549,270.323212 142.618210,271.577484 144.551315,272.630096 
	C152.109039,276.745239 158.634369,282.102448 164.079483,288.767761 
	C168.340195,293.983246 168.252289,295.817047 163.165451,300.391907 
	C160.839767,302.483521 159.476578,305.067688 158.414841,307.900513 
	C154.201019,319.143341 148.875732,329.895416 143.964645,340.833405 
	C131.444656,368.718048 111.717720,390.761078 88.408943,409.928467 
	C80.817818,416.170837 73.105545,422.268463 65.363167,428.322906 
	C62.767517,430.352661 59.181606,433.299103 56.559315,430.504272 
	C53.510872,427.255188 57.674038,424.599304 59.814861,422.308289 
	C81.223991,399.397308 102.344475,376.255859 118.108330,348.878448 
	C126.379143,334.514374 132.960693,319.439087 136.029541,303.039703 
	C137.939453,292.833496 137.048447,282.816895 133.256668,273.109711 
	C132.453918,271.054626 131.621277,268.912201 128.714554,269.513367 
	C126.289833,270.014832 124.279579,270.876495 124.264328,273.948792 
	C124.250046,276.824951 123.123978,279.261017 120.157776,280.127838 
	C117.342369,280.950562 115.323158,279.182465 113.668312,277.276306 
	C106.464996,268.979034 100.953407,260.368103 101.408501,248.335098 
	C101.960983,233.726776 99.924049,219.120422 97.295219,204.697815 
	C95.755318,196.249390 92.891838,188.320618 87.123314,181.665695 
	C85.768692,180.102921 83.819817,178.114014 85.309044,175.922562 
	C86.992798,173.444839 89.564034,174.876663 91.680725,175.640533 
	C94.648651,176.711578 98.115318,177.379059 100.332298,179.372009 
	C107.429459,185.751968 115.375938,184.990189 123.776581,183.605728 
	C135.254105,181.714203 146.800430,180.239578 158.318497,178.594818 
	C162.105057,178.054123 165.158951,176.420609 167.601837,173.336075 
	C182.919876,153.994522 197.678772,134.245895 211.371094,113.714165 
	C212.819672,111.542030 214.943420,109.234085 213.045242,106.468025 
	C211.279755,103.895317 208.498352,104.450073 205.746506,104.781319 
	C193.361618,106.272125 180.975235,107.819855 168.549072,108.870239 
	C161.865952,109.435173 156.368408,112.021126 151.541855,116.363266 
	C134.699127,131.515579 118.079727,146.914749 99.703720,160.272903 
	C88.369553,168.512115 76.737289,176.268372 64.625626,183.297180 
	C61.720913,184.982880 57.864044,187.893341 55.386166,184.102707 
	C52.966644,180.401337 56.970879,177.758804 59.703682,175.726929 
	C83.722908,157.868103 105.770844,137.859650 125.750557,115.573250 
	C130.879013,109.852692 135.516235,103.781845 139.416504,97.134727 
	C144.109909,89.135925 143.657166,81.647224 137.714706,74.494156 
	C136.438034,72.957390 135.193481,71.382675 134.071579,69.732033 
	C133.137024,68.357033 132.160583,66.818001 133.390411,65.145996 
	C134.566483,63.547092 136.179825,63.833374 137.917755,64.201653 
	C143.873886,65.463806 149.258972,68.096916 154.456863,71.088715 
	C160.662186,74.660362 166.703003,78.516945 172.838211,82.211670 
	C176.245041,84.263329 177.053879,87.380234 175.956299,90.846069 
	C174.828888,94.406059 175.679306,96.014572 179.479797,95.636093 
	C189.736481,94.614647 199.996948,93.620285 210.235367,92.437416 
	C211.804153,92.256172 213.458694,91.385353 214.739624,90.399521 
	C219.522217,86.718735 224.660828,86.967461 229.905655,88.834770 
	C235.707977,90.900558 241.475739,93.079369 246.850311,96.161400 
	C249.812515,97.860062 251.637024,100.068542 251.466141,103.768608 
	C251.300766,107.349297 249.171219,109.196609 246.276611,110.412788 
	C241.711884,112.330688 238.082672,115.431671 234.688492,118.925835 
	C218.432953,135.660294 202.142639,152.360992 185.887650,169.095993 
	C184.520477,170.503525 183.323227,172.076126 181.181671,174.586426 
	C185.369934,174.586426 188.446945,174.797623 191.487015,174.551926 
	C210.385941,173.024643 229.276581,171.394684 248.170044,169.799881 
	C249.166306,169.715790 250.236496,169.850876 251.149231,169.531860 
	C265.903046,164.375443 273.782104,175.321198 282.733276,183.274643 
	C285.709686,185.919296 284.862946,189.651947 281.459747,191.776276 
	C277.475861,194.263062 275.614105,197.871292 274.161804,202.088440 
	C268.578613,218.300873 262.809418,234.449127 257.163757,250.640198 
	C255.246216,256.139496 252.141968,260.399353 246.199066,261.931549 
	C241.071701,263.253479 237.768158,261.166229 237.764343,255.957855 
	C237.761322,251.832230 236.122971,250.899200 232.354248,251.032990 
	C222.708755,251.375412 213.059067,251.445343 203.527252,253.255707 
	C201.896347,253.565475 200.248718,253.678696 198.743240,255.201462 
	C202.056000,261.641815 207.776093,266.106537 212.520966,271.343231 
	C218.117035,277.519409 218.242767,277.924957 212.983322,284.084198 
	C209.827530,287.779877 208.465439,292.155060 208.299744,296.965057 
	C207.273590,326.756805 206.282104,356.549896 205.156982,386.337921 
	C204.956421,391.647491 204.474091,396.872101 205.205948,402.236328 
	C206.715973,413.303894 213.300568,421.175140 224.084396,423.423157 
	C235.172775,425.734650 246.447006,426.723022 258.196533,427.672424 
M188.345642,213.716095 
	C188.015015,221.018616 187.715240,228.322723 187.339798,235.622940 
	C187.170639,238.912033 188.015823,240.439606 191.887604,240.009003 
	C206.728790,238.358459 221.611359,237.083313 236.467484,235.560837 
	C239.833725,235.215866 242.856781,234.447083 243.742630,230.150436 
	C246.187393,218.292587 249.050522,206.521591 251.574127,194.679169 
	C253.124008,187.406097 251.909241,185.901367 244.579300,185.959946 
	C228.455978,186.088837 212.331131,186.207840 196.230118,187.301590 
	C193.231140,187.505325 191.932678,188.967682 190.935898,191.599030 
	C188.331573,198.473969 189.664597,205.771698 188.345642,213.716095 
M145.256638,247.633560 
	C151.292038,246.518066 157.313293,245.316711 163.367889,244.317535 
	C167.342178,243.661652 168.924881,241.626694 168.861496,237.523773 
	C168.655975,224.224564 168.597885,210.919159 168.777206,197.620117 
	C168.837997,193.111496 167.147491,191.636230 162.848373,192.248367 
	C148.068100,194.352859 133.268661,196.322632 118.489227,198.432709 
	C115.354141,198.880325 113.955261,200.468704 114.861900,204.026611 
	C116.004913,208.512085 116.588203,213.145874 117.309830,217.731903 
	C118.778984,227.068527 120.195221,236.394287 120.574341,245.882019 
	C120.810745,251.798340 121.916809,252.264038 127.327148,251.141251 
	C133.010757,249.961746 138.706680,248.841461 145.256638,247.633560 
z"></path>
<path fill="#000000" opacity="1.000000" stroke="none" d="
M315.977966,277.127808 
	C322.530975,262.462311 327.163757,247.537216 331.351990,232.461472 
	C332.520233,228.256393 330.333252,227.917725 327.025208,228.723755 
	C318.773132,230.734406 310.665985,233.188095 302.675659,236.080185 
	C294.043793,239.204468 289.694794,237.776520 284.017242,230.448700 
	C280.734589,226.211884 278.117065,221.589935 275.867523,216.747787 
	C275.088043,215.069992 274.249146,213.299530 275.978180,211.700500 
	C277.811432,210.005142 279.706177,210.764572 281.481873,211.833176 
	C282.905945,212.690155 284.207001,213.749237 285.613159,214.638794 
	C289.558350,217.134567 293.662262,218.113281 298.434967,217.069138 
	C308.826050,214.795776 319.254913,212.606339 329.761078,210.982407 
	C335.630432,210.075180 338.252319,207.572418 339.154297,201.553543 
	C342.452515,179.544708 346.627686,157.668915 346.973602,135.300186 
	C347.112976,126.288200 345.113434,118.162193 339.371521,111.088951 
	C337.888397,109.261993 336.182495,107.169395 337.840332,104.838676 
	C339.473694,102.542351 341.841919,104.135384 343.815247,104.684380 
	C354.710358,107.715500 364.446655,113.102043 373.496307,119.751953 
	C379.353149,124.055695 379.730011,126.334152 375.583191,132.110336 
	C371.086884,138.373322 370.469025,145.748901 369.440704,152.944778 
	C367.278229,168.077332 365.513855,183.266937 362.578766,198.282639 
	C361.500153,203.800598 362.176849,204.631287 367.374542,203.827759 
	C382.647186,201.466751 398.028931,199.609375 413.137085,196.450592 
	C425.336029,193.900040 434.979675,197.930328 444.119324,205.043823 
	C445.301483,205.963898 446.425323,206.959824 447.563110,207.935883 
	C454.752777,214.103546 456.068848,218.533554 448.954071,225.102036 
	C442.681671,230.892776 442.939575,239.680817 441.457031,247.412262 
	C435.211670,279.981354 427.240540,312.060028 414.218414,342.646790 
	C406.287170,361.275940 394.477386,376.576660 374.635864,383.964386 
	C372.462616,384.773529 370.214813,385.421875 367.957214,385.957977 
	C358.494629,388.205017 358.543274,388.152405 354.248413,379.283325 
	C351.739746,374.102966 346.763672,371.315674 342.479065,367.960327 
	C336.704315,363.437958 330.319550,359.791718 323.951050,356.152740 
	C322.148468,355.122742 319.408112,354.341614 320.283112,351.591431 
	C321.234711,348.600555 324.200806,349.314056 326.322845,349.792633 
	C335.081604,351.767975 343.754089,354.124573 352.508575,356.120483 
	C357.019196,357.148834 361.509247,358.027588 366.312775,357.204224 
	C379.917694,354.872070 386.604492,344.709198 392.949463,334.204102 
	C404.123199,315.704285 409.393219,295.002472 414.566620,274.333435 
	C418.761536,257.573853 422.183380,240.621979 423.736511,223.389389 
	C424.544952,214.419739 422.473175,212.235672 413.598633,213.480530 
	C396.325226,215.903549 379.153290,219.044083 361.923340,221.787003 
	C357.753235,222.450882 356.226471,225.229538 355.206329,228.821243 
	C350.335571,245.970123 344.338226,262.699585 336.867279,278.911743 
	C327.161865,299.972809 314.322144,318.878265 298.763306,336.033936 
	C284.306610,351.974396 269.746063,367.766876 251.530319,379.620178 
	C249.355423,381.035461 247.169357,383.561554 244.653931,380.522125 
	C242.312134,377.692535 244.622070,375.551605 246.449036,373.641205 
	C259.574860,359.916534 272.633057,346.134247 284.445892,331.233612 
	C297.466980,314.808929 307.816132,296.826324 315.977966,277.127808 
z"></path>
</svg></svg></g></svg>